<svg xmlns="http://www.w3.org/2000/svg" width="99.205" height="80" viewBox="0 0 99.205 80"><defs><style>.a,.b{fill:#1567b0;}.b,.c{fill-rule:evenodd;}.c,.d{fill:#f58334;}</style></defs><g transform="translate(0.01 0)"><g transform="translate(-0.01 0)"><path class="a" d="M11.245,4576.351a11.461,11.461,0,0,1-7.99-2.962,10.157,10.157,0,0,1-2.225-2.833H6.963a5.88,5.88,0,0,0,4.282,1.729,5.88,5.88,0,0,0,4.282-1.729h5.933a10.161,10.161,0,0,1-2.225,2.833A11.461,11.461,0,0,1,11.245,4576.351ZM.428,4569.1a9.831,9.831,0,0,1-.438-2.959q0-.444.036-.873H5.192a6.959,6.959,0,0,0-.055.873,6.1,6.1,0,0,0,.715,2.959H.428Zm-.173-5.291a9.563,9.563,0,0,1,3-4.929,11.445,11.445,0,0,1,7.99-2.968,11.445,11.445,0,0,1,7.989,2.968,9.564,9.564,0,0,1,3,4.929h-5.3a6,6,0,0,0-1.35-2.043,5.873,5.873,0,0,0-4.336-1.787,5.873,5.873,0,0,0-4.336,1.787,6,6,0,0,0-1.35,2.043H.254Zm22.21,1.458q.035.43.035.873a9.83,9.83,0,0,1-.438,2.96H16.637a6.1,6.1,0,0,0,.715-2.96,6.959,6.959,0,0,0-.054-.873h5.166Zm7.286,10.692v-5.4h4.907v5.4Zm0-6.86v-3.833h4.907v3.833Zm0-5.291v-3.974H22.634V4556.3h19.13v3.529H34.657v3.974Zm15.163,12.15v-5.4h4.907v5.4Zm0-6.86v-3.833h4.907v3.833Zm0-5.291v-7.5h4.907v7.5Zm28.9,3.993a11.267,11.267,0,0,1-.073,1.3h-5.05a6.411,6.411,0,0,0,.216-1.721v-2.112h4.907Zm-4.907-3.993v-7.5h4.907v7.5Zm4.545,6.749a7.225,7.225,0,0,1-2.236,3.529,10.6,10.6,0,0,1-7.222,2.266,10.656,10.656,0,0,1-7.226-2.266,7.229,7.229,0,0,1-2.245-3.529h5.462a4.137,4.137,0,0,0,.383.441,5.68,5.68,0,0,0,7.236,0,4.059,4.059,0,0,0,.382-.441h5.464ZM54.229,4569.1a11.2,11.2,0,0,1-.073-1.3v-2.535h4.907v2.112a6.409,6.409,0,0,0,.215,1.721Zm-.073-5.291v-7.5h4.907v7.5Zm28.8,12.15H78.054v-5.4h4.907Zm-4.907-6.86v-3.833h4.907v3.833Zm0-5.291v-7.5h4.412l6.161,7.106h0l6.151-7.106H99.2v7.5Zm21.141,1.458v3.833H94.288v-3.833Zm-6.086,0-3.317,3.833H87.471l-3.32-3.833Zm6.086,5.291v5.4H94.288v-5.4Z" transform="translate(0.01 -4508.429)"/><path class="b" d="M2417.851,2064.96c4.843,2.227,7.87,5.389,7.87,8.9,0,6.738-11.164,12.2-24.93,12.2-11.293,0-20.763-3.722-23.9-8.718a5.215,5.215,0,0,1,.652-6.316,5.148,5.148,0,0,0,.2,2.385l0,.01c.678,2.076,2.641,3.943,5.48,5.4h0a27.063,27.063,0,0,0,6.341,2.216h0a37.849,37.849,0,0,0,5.047.773,44.806,44.806,0,0,0,6.713.043c10-.729,17.671-4.948,17.671-10.042a5.967,5.967,0,0,0-1.527-3.829c.177-1.062.312-2.08.383-3.02Z" transform="translate(-2351.354 -2043.439)"/><g transform="translate(26.128 0)"><path class="c" d="M2525.713,38.558c.156.006.313.01.469.014ZM2518.285,6.53a4.315,4.315,0,1,1-4.315,4.315A4.316,4.316,0,0,1,2518.285,6.53Zm-5.494,28.849c.628-2.549,1.264-5.068,1.705-7.658a29.175,29.175,0,0,0,.417-2.894c0-.626-.208-.949-.636-.949a1.418,1.418,0,0,0-.56.2,16.706,16.706,0,0,0-3.862,3.17c-.394.394-1.588,1.686-2.545,2.734a5.166,5.166,0,0,1-.262-1.612,5.049,5.049,0,0,1,.061-.783l.054-.072c1.119-1.234,2.49-2.715,3.054-3.3q5.509-5.7,8.728-5.7a2.806,2.806,0,0,1,2.273,1.088q7.371-8.536,11.315-8.541a2.82,2.82,0,0,1,2.343,1.177,4.969,4.969,0,0,1,.911,3.1,38.471,38.471,0,0,1-.807,6.7q5.873-6.23,9.24-6.235a2.812,2.812,0,0,1,2.344,1.177,4.944,4.944,0,0,1,.911,3.1c0,3.8-1.447,9.578-2.715,14.137a23.59,23.59,0,0,1-7.824,3.264l2.112-8.813c.2-.834.446-2.05.721-3.663s.418-2.581.418-2.894c0-.627-.209-.949-.636-.949a1.282,1.282,0,0,0-.56.2,6.213,6.213,0,0,0-.939.579c-.408.3-.844.655-1.31,1.063-.5.446-1.045.948-1.614,1.528q-.422.416-.852.878c-1.034,4.608-2.416,9.638-3.29,12.988q-1.556.118-3.182.119c-1.237,0-2.45-.053-3.628-.155l3.184-14.437c.185-.838.447-2.05.721-3.663a29.239,29.239,0,0,0,.417-2.894c0-.626-.209-.949-.636-.949a1.417,1.417,0,0,0-.56.2,6.89,6.89,0,0,0-.939.579,25.939,25.939,0,0,0-2.923,2.591c-.46.46-.929.961-1.41,1.494a6.334,6.334,0,0,1,.169,1.508c0,5.439-1.664,9.713-3.07,14.8a27.024,27.024,0,0,1-6.34-2.216Zm33.259-30.56a4.315,4.315,0,1,1-4.315,4.315,4.316,4.316,0,0,1,4.315-4.315ZM2532.553,0a4.315,4.315,0,1,1-4.314,4.315A4.316,4.316,0,0,1,2532.553,0Z" transform="translate(-2507.05 0)"/></g><path class="d" d="M2379.72,6937.392v-7.545h.971v7.545Zm3.173,0h-.9v-7.545h.806l1.67,4.773v-4.773h.9v7.623h-.718l-1.758-4.7Zm4.416,0v-6.646h-1.163v-.9h3.3v.9h-1.164v6.646Zm2.918,0v-7.545h2.692v.9H2391.2v2.271h1.583v.9H2391.2v2.576h1.809v.9Zm4.121,0v-7.545h1.092a1.533,1.533,0,0,1,1.228.565,2.186,2.186,0,0,1,.476,1.459,2.136,2.136,0,0,1-.48,1.44,1.464,1.464,0,0,1-.314.286,1.508,1.508,0,0,1,.354.371,3.143,3.143,0,0,1,.49,1.124l.552,2.3h-1.009l-.439-1.946a3.3,3.3,0,0,0-.39-1.019c-.173-.277-.337-.416-.5-.416h-.093v3.381Zm.971-4.307h.149a.589.589,0,0,0,.531-.3,1.627,1.627,0,0,0,.184-.851,1.659,1.659,0,0,0-.184-.862.584.584,0,0,0-.531-.3h-.149Zm4.053,4.307h-.9v-7.545h.806l1.67,4.773v-4.773h.9v7.623h-.718l-1.758-4.7Zm3.219,0,1.412-7.623h1.021l1.412,7.623h-.938l-.269-1.643h-1.425l-.27,1.643h-.943Zm1.924-5.962-.561,3.419h1.124l-.561-3.419Zm3.272,5.962v-6.646h-1.164v-.9h3.3v.9h-1.164v6.646Zm2.9,0v-7.545h.971v7.545Zm4.019.117a1.665,1.665,0,0,1-1.453-1.08,6,6,0,0,1-.565-2.783,6.143,6.143,0,0,1,.565-2.82,1.516,1.516,0,0,1,2.913,0,6.141,6.141,0,0,1,.565,2.82,6,6,0,0,1-.565,2.783A1.668,1.668,0,0,1,2414.7,6937.509Zm0-.926c.328,0,.578-.254.75-.763a7.069,7.069,0,0,0,.26-2.18,7.287,7.287,0,0,0-.26-2.208c-.171-.518-.422-.775-.75-.775s-.566.258-.742.775a7.226,7.226,0,0,0-.261,2.208,7.01,7.01,0,0,0,.261,2.18Q2414.225,6936.583,2414.7,6936.583Zm3.975.809h-.9v-7.545h.806l1.67,4.773v-4.773h.9v7.623h-.718l-1.758-4.7Zm3.219,0,1.412-7.623h1.021l1.412,7.623h-.937l-.269-1.643h-1.425l-.269,1.643Zm1.924-5.962-.561,3.419h1.124l-.561-3.419Zm2.666,5.962v-7.545h.972v6.646h1.864v.9Z" transform="translate(-2354.919 -6857.509)"/></g></g></svg>